<?xml version="1.0" encoding="UTF-8" standalone="no"?>
<svg xmlns="http://www.w3.org/2000/svg" xmlns:xlink="http://www.w3.org/1999/xlink" class="card" face="1J" height="3.5in" preserveAspectRatio="none" viewBox="-120 -168 240 336" width="2.5in">
<rect width="239" height="335" x="-119.5" y="-167.5" rx="12" ry="12" fill="white" stroke="black"></rect>
<g transform="translate(-142, -193) scale(0.8, 0.8)">
	<g id="XMLID_89_">
		<g>
			<path fill="white" stroke="black" d="M215.7,207.3c-0.8,0.4-1.2,0.7-1.2,0.7l-8-9.2l0.1-0.1l17.8-21.7l-15.6-15.1c4-6.8,12.2-13,28.5-9.3
				c2.6,8,10.2,31.3,9.5,34.1C245.9,189.8,221.4,204,215.7,207.3z"/>
			<path fill="#3F3B3A" d="M208.7,161.9c-3.8,6.4-4,13.3-4,13.3l-2.9-3l-18.7-19.7l-17.5,22.7L154.4,152c-2.5,0.1-5.9,0.3-9.5,0.6
				c-2.7,0.2-5.6,0.5-8.3,0.7h0c-7.1,0.7-13.2,1.3-13.2,1.3c3.4-4.6,9.5-12.1,25-17c10.7-3.4,16.5-8,19.1-10.5
				c11.1,10.7,19.2,7.4,23.2-2.2c1.3,5.8,10.2,9.8,20.7,9.8c9,0,19.9,10.1,25,15.3c0.1,0.3,0.4,1.2,0.9,2.6
				C220.8,148.9,212.7,155.1,208.7,161.9z"/>
			<path fill="#3F3B3A" d="M170.1,262.5l-16,10.8l-6.6-22.1l-2.4,2l-10.3,8.4c1.5-6.6,14.6-35.7,15.2-49c6.8,1.4,19.4,2.4,41.2,0
				c-0.9,2.5-0.7,5.4,2.8,7.6c3.7,2.4,7,3.1,9.5,2.8c4.1,20.4,24.6,46.9,25.2,47.8l-19.5-16.4l-7.5,23.6L199,276l-24.5-16.5
				L170.1,262.5z"/>
			<path fill="black" stroke="black" d="M192.4,376.7c1.3-0.5,2.2-0.5,2.2-0.5s-4,19.3-2,24.2c2,4.9,8.6,16.1,17.8,14.6
				c9.2-1.4,12.1-7.8,12.1-7.8s8.3,13.5-15.5,15.5c-21.2,1.8-28.3-15.7-29.6-19.6c-0.2-0.5-0.2-0.8-0.2-0.8s2-7.3,4.6-13.6
				c1.3-3,2.7-5.8,4.1-7.4C188.1,378.6,190.7,377.3,192.4,376.7z"/>
			<path fill="black" stroke="black" d="M193.9,208.2c-2.2-3.1-3-5.7-3-5.7l5.2-1.3l10.4-2.6l-0.1,0.1l8,9.2c0,0,0.4-0.2,1.2-0.7l0.2,12.8
				c-2.7-0.1-5.1-0.5-7.3-1.2C201.1,216.8,196.5,212,193.9,208.2z"/>
			<path fill="#FBF2E2" d="M191.2,212.5c0.6-1.7,1.8-3.2,2.7-4.2c2.6,3.8,7.2,8.5,14.7,10.7c-0.5,2.1-2.3,3.6-5,4
				c-2.5,0.3-5.8-0.4-9.5-2.8C190.5,217.8,190.3,214.9,191.2,212.5z"/>
			<path d="M157.5,90.7c-0.3-1.2-6.8-31,24.7-31.6c0,0,4.3-3.8,4.6,0.3c0.3,4-3.7,2.9-4.9,2c0,0-13.5,10.9-2,18.1
				c0,0,9.8-12.3,17.3-4.6c7.5,7.8,5.5,19.3,5.5,19.3s2.6,4.3-1.7,4.3s-2.6-2.9-1.4-4.6c0,0,2.6-10.1-1.7-9.8
				c-3.8,0.2-6.5,4.5-6.7,7.5c-3.1-2.7-11.9-9.1-20.9-4.9c-10.1,4.7-11.8,12.6-12,17.5c-1,0-1.9,0.6-2.6,1.8c-0.7-2-3-5.2-11.5-4.4
				c-12.4,1.1-17.2,24.1-17.2,24.1s3.2,4.6-0.6,4.6c-3.8,0-4-3.5-1.7-4.9c0,0-8-19.6,4-31.3C140.6,82.4,145.2,78.1,157.5,90.7z"/>
			<path fill="white" stroke="black" d="M146.5,187.4c-1.1-14.6-1.3-30.8-1.3-30.8l-0.3-4c3.6-0.3,7-0.5,9.5-0.6l11.2,23.3l17.5-22.7l18.7,19.7
				c-2.6,5-9.9,20.4-5.7,29l-5.2,1.3c0,0,0.8,2.5,3,5.7c-0.9,1-2,2.5-2.7,4.2c-21.8,2.4-34.4,1.4-41.2,0c0.1-1.8-0.1-3.3-0.5-4.5
				C148.1,204.5,147.1,196.2,146.5,187.4z"/>
			<path fill="white" stroke="black" d="M174.5,259.5L199,276c-1.4,7.2-7.8,43-4.7,50.2c3.1,7.2,5.8,28-1.9,50.5c-1.7,0.6-4.3,1.9-6.7,4.7
				c-1.4,1.6-2.8,4.4-4.1,7.4c-0.8-1.4-2-3.3-3.6-5.2c2.3-27.4-4.9-94.6-8-121.1L174.5,259.5z"/>
			<path fill="black" stroke="black" d="M191.1,91.7c0.8,0.7,1.2,1.1,1.2,1.1v8.9l-0.1,0c-0.5-2.5-1-4-1-4s-2-6.3-12.6-5.2
				c-10.6,1.2-15.8,14.9-15.8,14.9c-0.8-1.8-2.7-3.3-4.6-3.2c0.2-4.9,1.9-12.8,12-17.5C179.2,82.6,188,89,191.1,91.7z"/>
			<path fill="#FBF2E2" d="M155.6,106.1c0.7-1.2,1.6-1.8,2.6-1.8c1.8-0.1,3.8,1.4,4.6,3.2c0,0,5.2-13.8,15.8-14.9
				c10.6-1.1,12.6,5.2,12.6,5.2s0.5,1.5,1,4c1,4.9,2,13.5-1,21.8c-0.2,0.5-0.4,0.9-0.5,1.4c-4.1,9.6-12.1,12.9-23.2,2.2
				c-2.2-2.1-4.6-4.8-7-8.2c0,0-7.2-3.5-5.7-10.3C154.9,107.5,155.2,106.7,155.6,106.1z M172.8,118.4c2.3,3.4,6.6,5.4,10.3,5.4
				c3.5,0,4.7-3.5,4.9-4c-0.3,0.3-2,2.5-5.4,2.5C178.9,122.4,173.2,118.6,172.8,118.4z M189.4,109.2l1.7-3.4l-6-0.3l-1.4,12.1
				l-6.9-4.3l8,6.6l2-12.1L189.4,109.2z M175.4,109.7l1.2-3.2l-8.1-0.3L175.4,109.7z"/>
			<polygon fill="#FBF2E2" points="191.2,105.7 189.4,109.2 186.9,107.7 184.9,119.8 176.8,113.2 183.7,117.5 185.1,105.4 			"/>
			<path fill="#FBF2E2" d="M188,119.8c-0.1,0.4-1.4,4-4.9,4c-3.8,0-8-2-10.3-5.4c0.4,0.2,6.1,4,9.8,4
				C186,122.4,187.7,120.2,188,119.8z"/>
			<path fill="white" stroke="black" d="M178.1,383.6c1.5,1.9,2.8,3.8,3.6,5.2c-2.6,6.3-4.6,13.6-4.6,13.6s0.1,0.3,0.2,0.8
				c-5.5,5.2-19.6,7.8-35,7.3c-17.5-0.6-14.7-17-14.7-17s2.9,4.6,14.1,8.6c11.2,4,17.8-5.5,23.3-12.4c5.5-6.9,0-14.7,0-14.7
				c1.6,0,3.1,0.4,4.6,1.1C172.9,377.7,175.8,380.7,178.1,383.6z"/>
			<path fill="black" d="M170.1,262.5c3.1,26.5,10.3,93.7,8,121.1c-2.3-2.9-5.2-5.9-8.5-7.4c-1.3-35.7-20.8-98.7-24.5-123l2.4-2l6.6,22.1
				L170.1,262.5z"/>
			<polygon fill="#FBF2E2" points="176.5,106.6 175.4,109.7 168.5,106.3 			"/>
			<path fill="white" stroke="black" d="M117.2,224.1l-0.8-0.2c0,0,1.2-23.3,1.2-26.7c0-3.1,15.7-36.8,18.9-43.9h0c2.7-0.2,5.6-0.5,8.3-0.7l0.3,4
				c0,0,0.2,16.2,1.3,30.8l-13.6,10l-2.9,30.8l-0.3-0.1L117.2,224.1z"/>
			<path fill="black" stroke="black" d="M134.3,311.2c3.5,4,7.5,20.7-3.5,23.6c-6.4,1.7-12.8-1.1-15.2-6.9c16.9,8.5,19.9-8.8,16.5-18.3
				C133,310.1,133.7,310.6,134.3,311.2z"/>
			<path fill="black" stroke="black" d="M121.3,309.5c1.6-0.6,3.6-0.9,5.5-0.9c1.9,0,3.8,0.3,5.4,1c3.3,9.5,0.3,26.8-16.5,18.3
				c-1.7-4-1.6-9.3,1.7-15.6C118,311.1,119.4,310.1,121.3,309.5z"/>
			<path fill="black" d="M112.9,244.2c-5.8-3.2-10.2-7.1-10.2-7.1l14.6-13l12.5,4c2.5,9.4,1.4,19.1,1.4,19.1c-1.5,0.8-3.1,1.2-4.8,1.2
				C122,248.5,117.1,246.5,112.9,244.2z"/>
			<path fill="white" stroke="black" d="M120.9,274.3l-0.1-13.4l4.4,7.8l1.6,39.9c-1.9,0-3.8,0.3-5.5,0.9L120.9,274.3z"/>
			<path fill="#FBF2E2" d="M125.1,268.8l-4.4-7.8l0.1,13.4c-11.2-9.8-9.1-25.1-8-30.1c4.2,2.3,9.1,4.3,13.4,4.2
				c0.9,5.8,2.9,20.1,0.2,22.9L125.1,268.8z"/>
		</g>
	</g>
</g>
</svg>
